<svg width="23" height="22" viewBox="0 0 23 22" fill="none" xmlns="http://www.w3.org/2000/svg">
<g id="Basket">
<path id="Vector" d="M20.5161 7.3442C20.3874 7.19722 20.2289 7.07935 20.0511 6.99844C19.8733 6.91753 19.6802 6.87545 19.4849 6.87498H16.3593L11.7505 1.60959C11.686 1.53644 11.6066 1.47785 11.5177 1.43772C11.4288 1.39759 11.3324 1.37683 11.2349 1.37683C11.1373 1.37683 11.0409 1.39759 10.952 1.43772C10.8631 1.47785 10.7838 1.53644 10.7192 1.60959L6.11042 6.87498H2.98487C2.78899 6.87499 2.59537 6.91684 2.41698 6.99774C2.23859 7.07865 2.07954 7.19673 1.95049 7.34409C1.82144 7.49145 1.72536 7.66469 1.66869 7.85219C1.61202 8.03969 1.59607 8.23714 1.6219 8.43131L2.813 17.3697C2.85716 17.7 3.01979 18.0031 3.27066 18.2225C3.52153 18.4419 3.84355 18.5627 4.17682 18.5625H18.2929C18.6262 18.5627 18.9482 18.4419 19.1991 18.2225C19.4499 18.0031 19.6126 17.7 19.6567 17.3697L20.8487 8.43217C20.8741 8.23759 20.8576 8.03983 20.8002 7.85218C20.7428 7.66452 20.646 7.49132 20.5161 7.3442ZM7.24737 15.8125C7.22419 15.8137 7.20095 15.8137 7.17776 15.8125C7.00674 15.8133 6.84153 15.7504 6.7144 15.636C6.58728 15.5216 6.50736 15.3639 6.49026 15.1937L6.00901 10.3812C5.99078 10.1998 6.04536 10.0186 6.16076 9.87739C6.27615 9.73621 6.4429 9.64665 6.62432 9.62842C6.80575 9.61019 6.98699 9.66477 7.12817 9.78016C7.26935 9.89556 7.3589 10.0623 7.37714 10.2437L7.85839 15.0562C7.87764 15.2375 7.82408 15.4191 7.7095 15.5609C7.59491 15.7027 7.42868 15.7932 7.24737 15.8125ZM11.9224 15.125C11.9224 15.3073 11.8499 15.4822 11.721 15.6111C11.5921 15.7401 11.4172 15.8125 11.2349 15.8125C11.0525 15.8125 10.8777 15.7401 10.7487 15.6111C10.6198 15.4822 10.5474 15.3073 10.5474 15.125V10.3125C10.5474 10.1301 10.6198 9.95528 10.7487 9.82635C10.8777 9.69742 11.0525 9.62498 11.2349 9.62498C11.4172 9.62498 11.5921 9.69742 11.721 9.82635C11.8499 9.95528 11.9224 10.1301 11.9224 10.3125V15.125ZM7.93745 6.87498L11.2349 3.10662L14.5323 6.87498H7.93745ZM16.4564 10.3812L15.9752 15.1937C15.9582 15.3632 15.8789 15.5203 15.7526 15.6346C15.6264 15.7489 15.4623 15.8123 15.292 15.8125C15.2688 15.8137 15.2456 15.8137 15.2224 15.8125C15.1325 15.8035 15.0454 15.7768 14.9658 15.7341C14.8863 15.6914 14.8159 15.6334 14.7588 15.5635C14.7017 15.4936 14.6589 15.4131 14.6328 15.3267C14.6068 15.2402 14.598 15.1495 14.6071 15.0597L15.0883 10.2472C15.1065 10.0657 15.1961 9.89899 15.3373 9.7836C15.4785 9.66821 15.6597 9.61362 15.8411 9.63186C16.0225 9.65009 16.1893 9.73965 16.3047 9.88083C16.4201 10.022 16.4747 10.2032 16.4564 10.3847V10.3812Z" fill="#696F79"/>
</g>
</svg>
