<svg width="23" height="22" viewBox="0 0 23 22" fill="none" xmlns="http://www.w3.org/2000/svg">
<g id="Users" clip-path="url(#clip0_9_724)">
<path id="Vector" d="M14.4562 16.812C14.5238 16.9157 14.5622 17.0358 14.5672 17.1595C14.5723 17.2833 14.5438 17.4061 14.4848 17.5149C14.4258 17.6238 14.3385 17.7148 14.2321 17.7782C14.1257 17.8415 14.0042 17.875 13.8804 17.875H1.20115C1.07731 17.875 0.955773 17.8415 0.849381 17.7782C0.742989 17.7148 0.655691 17.6238 0.596711 17.5149C0.537731 17.4061 0.509259 17.2833 0.514304 17.1595C0.519348 17.0358 0.55772 16.9157 0.625368 16.812C1.59311 15.3224 3.01657 14.1856 4.68334 13.5713C3.76191 12.9578 3.06236 12.0642 2.68812 11.0224C2.31389 9.98064 2.28484 8.8461 2.60527 7.78656C2.92571 6.72701 3.57861 5.79871 4.46744 5.13893C5.35626 4.47915 6.43382 4.12292 7.54076 4.12292C8.6477 4.12292 9.72526 4.47915 10.6141 5.13893C11.5029 5.79871 12.1558 6.72701 12.4762 7.78656C12.7967 8.8461 12.7676 9.98064 12.3934 11.0224C12.0192 12.0642 11.3196 12.9578 10.3982 13.5713C12.0649 14.1856 13.4884 15.3224 14.4562 16.812ZM22.0109 16.7991C21.0429 15.3157 19.6226 14.1839 17.9607 13.5713C19.0485 12.8385 19.8161 11.7188 20.1075 10.44C20.3988 9.1612 20.1918 7.81946 19.5287 6.68787C18.8656 5.55628 17.7962 4.71991 16.5382 4.349C15.2802 3.97808 13.9281 4.1005 12.7572 4.69135C12.7124 4.71446 12.6732 4.74714 12.6425 4.78707C12.6118 4.827 12.5902 4.87319 12.5793 4.92239C12.5684 4.97159 12.5684 5.02258 12.5794 5.07176C12.5904 5.12094 12.6121 5.1671 12.6429 5.20697C13.5136 6.29306 14.0136 7.62941 14.0697 9.02029C14.1259 10.4112 13.7352 11.7835 12.9548 12.9362C12.9044 13.0115 12.8857 13.1037 12.903 13.1927C12.9202 13.2817 12.9719 13.3603 13.0468 13.4114C14.0642 14.1215 14.9352 15.0211 15.612 16.0609C15.885 16.4789 15.9965 16.982 15.9257 17.4763C15.9177 17.5254 15.9205 17.5757 15.9339 17.6237C15.9473 17.6717 15.971 17.7162 16.0033 17.7541C16.0355 17.792 16.0757 17.8225 16.1209 17.8434C16.1661 17.8642 16.2153 17.875 16.2651 17.875H21.4472C21.5986 17.8751 21.7457 17.8251 21.8658 17.733C21.986 17.6409 22.0723 17.5116 22.1115 17.3654C22.1354 17.2692 22.1388 17.1691 22.1214 17.0715C22.1041 16.974 22.0665 16.8811 22.0109 16.7991Z" fill="#696F79"/>
</g>
<defs>
<clipPath id="clip0_9_724">
<rect width="22" height="22" fill="white" transform="translate(0.322021)"/>
</clipPath>
</defs>
</svg>
