<svg width="43" height="43" viewBox="0 0 43 43" fill="none" xmlns="http://www.w3.org/2000/svg">
<g id="Group 8649">
<rect id="Rectangle 6317" x="0.472534" width="42.5275" height="42.5275" rx="5" fill="#F2F2F2"/>
<g id="Group 8648">
<path id="Vector" d="M15.6417 20.1588C15.6417 17.1385 15.6417 15.6283 16.58 14.6901C17.5182 13.7518 19.0284 13.7518 22.0487 13.7518H25.2522C28.2725 13.7518 29.7826 13.7518 30.7209 14.6901C31.6592 15.6283 31.6592 17.1385 31.6592 20.1588V25.498C31.6592 28.5183 31.6592 30.0284 30.7209 30.9667C29.7826 31.905 28.2725 31.905 25.2522 31.905H22.0487C19.0284 31.905 17.5182 31.905 16.58 30.9667C15.6417 30.0284 15.6417 28.5183 15.6417 25.498V20.1588Z" stroke="#4F4F4F" stroke-width="2.3"/>
<path id="Vector_2" d="M15.0166 28.0763C13.2473 28.0763 11.813 26.6421 11.813 24.8728V18.4658C11.813 14.4387 11.813 12.4252 13.0641 11.1741C14.3152 9.9231 16.3287 9.9231 20.3558 9.9231H24.6271C26.3964 9.9231 27.8306 11.3574 27.8306 13.1266" stroke="#4F4F4F" stroke-width="2.3"/>
</g>
</g>
</svg>
