<svg width="43" height="43" viewBox="0 0 43 43" fill="none" xmlns="http://www.w3.org/2000/svg">
<g id="linkedin">
<path id="bg" d="M35.8826 0H6.64492C2.97503 0 0 2.97503 0 6.64492V35.8826C0 39.5524 2.97503 42.5275 6.64492 42.5275H35.8826C39.5524 42.5275 42.5275 39.5524 42.5275 35.8826V6.64492C42.5275 2.97503 39.5524 0 35.8826 0Z" fill="#2867B2"/>
<path id="linkedin_2" d="M15.4162 31.8956H10.8977V17.6755H15.4162V31.8956ZM13.1569 15.682C11.6951 15.682 10.6319 14.6188 10.6319 13.157C10.6319 11.6951 11.828 10.6319 13.1569 10.6319C14.6188 10.6319 15.682 11.6951 15.682 13.157C15.682 14.6188 14.6188 15.682 13.1569 15.682ZM31.8956 31.8956H27.3771V24.1875C27.3771 21.9283 26.4468 21.2638 25.1178 21.2638C23.7888 21.2638 22.4598 22.327 22.4598 24.3204V31.8956H17.9413V17.6755H22.194V19.669C22.5927 18.7387 24.1875 17.2768 26.4468 17.2768C28.9718 17.2768 31.6298 18.7387 31.6298 23.1243V31.8956H31.8956Z" fill="white"/>
</g>
</svg>
