<svg width="44" height="43" viewBox="0 0 44 43" fill="none" xmlns="http://www.w3.org/2000/svg">
<g id="twitter">
<path id="bg" d="M36.487 0H7.24932C3.57943 0 0.604401 2.97503 0.604401 6.64492V35.8826C0.604401 39.5524 3.57943 42.5275 7.24932 42.5275H36.487C40.1568 42.5275 43.1319 39.5524 43.1319 35.8826V6.64492C43.1319 2.97503 40.1568 0 36.487 0Z" fill="#1DA1F2"/>
<path id="twitter_2" d="M32.5 14.6188C31.7026 15.0175 30.9052 15.1504 29.9749 15.2833C30.9052 14.7517 31.5697 13.9543 31.8355 12.8912C31.0381 13.4228 30.1078 13.6886 29.0446 13.9543C28.2473 13.157 27.0512 12.6254 25.8551 12.6254C23.0642 12.6254 20.9378 15.2833 21.6023 17.9413C18.0141 17.8084 14.8245 16.0807 12.5653 13.4228C11.3692 15.4162 12.0337 17.9413 13.8942 19.2703C13.2297 19.2703 12.5653 19.0045 11.9008 18.7387C11.9008 20.7322 13.3626 22.5927 15.3561 23.1243C14.6916 23.2572 14.0271 23.3901 13.3626 23.2572C13.8942 24.9849 15.489 26.3139 17.4825 26.3139C15.8877 27.51 13.4955 28.1745 11.2363 27.9087C13.2297 29.1048 15.489 29.9022 17.8812 29.9022C25.988 29.9022 30.5065 23.1243 30.2407 16.8781C31.171 16.3465 31.9684 15.5491 32.5 14.6188Z" fill="white"/>
</g>
</svg>
