<svg width="44" height="43" viewBox="0 0 44 43" fill="none" xmlns="http://www.w3.org/2000/svg">
<g id="whatsapp">
<path id="bg" d="M36.6188 0H7.38118C3.7113 0 0.736267 2.97503 0.736267 6.64492V35.8826C0.736267 39.5524 3.7113 42.5275 7.38118 42.5275H36.6188C40.2887 42.5275 43.2637 39.5524 43.2637 35.8826V6.64492C43.2637 2.97503 40.2887 0 36.6188 0Z" fill="#25D366"/>
<path id="whatsapp_2" fill-rule="evenodd" clip-rule="evenodd" d="M29.4423 13.6886C27.4488 11.6951 24.7909 10.6319 22 10.6319C16.1525 10.6319 11.3681 15.4162 11.3681 21.2638C11.3681 23.1243 11.8997 24.9849 12.83 26.5797L11.3681 31.8956L16.9499 30.4338C18.5447 31.2311 20.2723 31.7627 22 31.7627C27.8475 31.7627 32.6319 26.9784 32.6319 21.1309C32.6319 18.34 31.4358 15.682 29.4423 13.6886ZM22 30.0351C20.4052 30.0351 18.8104 29.6364 17.4815 28.839L17.2157 28.7061L13.8932 29.6364L14.8235 26.4468L14.5577 26.0481C13.6274 24.5862 13.2287 22.9914 13.2287 21.3967C13.2287 16.6123 17.2157 12.6254 22 12.6254C24.3922 12.6254 26.5186 13.5557 28.2462 15.1504C29.9739 16.8781 30.7713 19.0045 30.7713 21.3967C30.7713 26.0481 26.9172 30.0351 22 30.0351ZM26.7844 23.3901C26.5186 23.2572 25.1896 22.5927 24.9238 22.5927C24.658 22.4599 24.5251 22.4599 24.3922 22.7256C24.2593 22.9914 23.7277 23.523 23.5948 23.7888C23.4619 23.9217 23.329 23.9217 23.0632 23.9217C22.7974 23.7888 22 23.523 20.9368 22.5927C20.1394 21.9283 19.6078 20.998 19.4749 20.7322C19.342 20.4664 19.4749 20.3335 19.6078 20.2006C19.7407 20.0677 19.8736 19.9348 20.0065 19.8019C20.1394 19.669 20.1394 19.5361 20.2723 19.4032C20.4052 19.2703 20.2723 19.1374 20.2723 19.0045C20.2723 18.8716 19.7407 17.5426 19.4749 17.011C19.342 16.6123 19.0763 16.6123 18.9434 16.6123C18.8105 16.6123 18.6775 16.6123 18.4117 16.6123C18.2788 16.6123 18.013 16.6123 17.7472 16.8781C17.4814 17.1439 16.817 17.8084 16.817 19.1374C16.817 20.4664 17.7472 21.6625 17.8801 21.9283C18.013 22.0612 19.7407 24.852 22.3987 25.9152C24.658 26.8455 25.0567 26.5797 25.5883 26.5797C26.1199 26.5797 27.183 25.9152 27.3159 25.3836C27.5817 24.7191 27.5817 24.1875 27.4488 24.1875C27.3159 23.523 27.0501 23.523 26.7844 23.3901Z" fill="white"/>
</g>
</svg>
